<svg xmlns="http://www.w3.org/2000/svg" xmlns:xlink="http://www.w3.org/1999/xlink" id="Camada_1" x="0px" y="0px" viewBox="0 0 481 494" style="enable-background:new 0 0 481 494;" xml:space="preserve">
<g transform="translate(0.000000,523.000000) scale(0.100000,-0.100000)">
	<path d="M2490,5090.2c-738-75-1383-512-1695-1148c-99-201-184-501-201-711c-5-64-3-86,10-112c52-100,206-71,220,41   c23,186,32,236,57,335c103,405,374,796,716,1033l72,50l62-16c106-28,171-56,213-95c23-20,48-39,57-43c9-3,19-21,23-41   c4-19,22-58,41-86c33-48,34-53,20-79c-19-38-120-137-180-177c-42-29-59-34-106-34c-51,0-62-4-130-51c-41-29-119-97-174-153   c-80-80-109-117-138-177c-20-41-37-83-37-92s-18-28-40-42c-47-30-62-56-62-106c1-47,28-100,81-160c59-67,126-106,264-154   c217-75,381-137,404-152c14-9,23-25,23-40c0-57,27-83,143-137c232-109,233-109,272-103c88,14,119,111,58,179c-8,9-69,40-135,69   c-114,50-121,55-154,106c-64,100-129,135-548,288c-154,56-156,58-122,126c14,29,26,61,26,71c0,82,201,285,323,327   c209,72,441,292,455,430c5,58-10,110-45,151c-14,17-31,52-38,80c-23,88-47,111-214,207l-74,42l48,21c27,12,93,34,147,50   c281,84,574,97,870,40c102-20,308-80,337-99c12-7,4-21-36-65c-64-69-95-133-98-200c-3-49-5-52-50-83c-96-64-155-138-155-195   c0-12-16-45-35-72c-59-83-78-148-72-243l6-82l-48-58c-154-187-193-306-161-500c27-169,75-267,184-374c111-110,204-137,350-104   c83,18,106,15,106-11c0-10,19-57,41-107c34-73,40-95,35-125c-30-162-26-242,19-397c72-247,209-401,388-434c26-5,50-11,53-14   s-25-30-63-60c-202-162-441-283-686-347c-116-31-130-38-153-81c-18-36-18-73,1-109c33-64,83-74,216-40c796,204,1424,935,1529,1780   c15,123,12,352-6,481c-120,864-797,1596-1634,1768C2897,5092.2,2648,5106.2,2490,5090.2z M3643,4571.2c216-140,412-335,550-550   c274-425,359-965,231-1460c-68-262-234-578-329-626c-94-49-255-63-311-29c-42,26-77,73-114,153c-67,150-86,285-54,395   c21,74,14,122-37,242c-23,53-45,120-48,148c-9,62-28,86-89,113c-72,32-112,34-225,11c-120-25-135-22-200,38c-52,48-81,104-107,206   c-41,161-25,215,118,395c51,63,99,129,107,146c25,52,22,62-38,147c-17,24-17,28-3,56c9,17,36,42,61,57c65,38,91,96,65,145   c-10,18-1,24,102,73c62,29,122,63,133,76c30,34,27,98-7,139c-32,37-29,48,24,97c36,34,88,74,95,74   C3570,4617.2,3604,4596.2,3643,4571.2z"></path>
	<path d="M728,2969.2c-9-4-154-144-322-311c-314-312-330-332-312-388c3-10,144-158,313-329c335-339,340-342,415-311   c46,19,68,56,68,114v47l-192,193l-192,193h957c1055,0,1007-3,1047,62c24,39,25,69,5,112c-34,70,35,66-1041,66H505l182,183   c99,100,186,192,192,204s11,40,11,63c0,34-6,48-34,76c-27,27-42,34-72,33C762,2976.2,737,2973.2,728,2969.2z"></path>
	<path d="M2025,1735.2c-15-12-34-36-41-54c-28-66-16-84,189-291l191-193h-968c-1062,0-1008,3-1041-60c-8-16-15-42-15-58   c0-41,39-95,80-109c26-9,277-12,990-12l955-1l-187-187c-103-104-192-201-198-216c-31-86,65-180,149-145c17,7,167,149,335,316   c334,331,338,337,300,404c-11,18-154,167-320,331l-300,297h-46C2067,1757.2,2044,1750.2,2025,1735.2z"></path>
</g>
</svg>