<svg xmlns="http://www.w3.org/2000/svg" xmlns:xlink="http://www.w3.org/1999/xlink" id="Camada_1" x="0px" y="0px" viewBox="0 0 832.5 945" style="enable-background:new 0 0 832.5 945;" xml:space="preserve">
<g transform="translate(0.000000,1001.000000) scale(0.100000,-0.100000)">
	<path d="M4117.9,9834.3c-58-21-492-266-1474-834c-168-97-212-123-375-217c-74-42-178-102-230-133c-52-30-147-85-210-122   c-335-195-448-261-580-338c-80-47-197-115-260-152s-173-101-245-143c-416-243-510-303-528-340c-32-63-36-361-36-2282   c0-1779,5-2215,29-2282c9-26,34-46,113-96c123-77,296-181,512-307c88-51,207-121,265-155c386-227,1429-824,2075-1187   c696-392,967-538,995-538c17,0,203,95,400,205c519,289,711,397,1200,675c168,96,334,190,370,210s126,72,200,115s241,138,370,212   s271,156,315,182s141,83,215,126c333,192,633,371,777,462c79,50,104,71,113,96c24,66,29,505,29,2277c0,1925-4,2224-36,2287   c-16,32-53,57-280,192c-143,86-314,187-380,225c-65,38-170,99-233,136c-121,71-479,279-765,445c-93,54-206,119-250,145   s-192,111-330,190c-137,78-302,173-365,210c-100,59-262,151-991,566c-207,117-337,184-357,184   C4161.9,9847.3,4137.9,9841.3,4117.9,9834.3z M4247.9,9316.3c232-126,518-287,746-418c55-31,134-76,175-100c77-44,541-310,708-407   c50-29,134-77,185-106c50-30,223-129,382-222c160-93,322-186,360-208c144-82,601-351,633-372l33-22l-35-30c-37-33-260-172-476-298   c-74-43-171-100-215-125c-366-215-625-360-644-360c-37,0-527,265-906,490c-44,26-134,79-200,118c-783,457-918,536-1470,867   c-488,292-715,437-715,456s1319,778,1354,779C4167.9,9358.3,4205.9,9339.3,4247.9,9316.3z M2361.9,8292.3c18-9,84-47,147-84   c63-37,237-138,385-225c149-87,302-177,340-200c39-23,142-84,230-135s192-112,230-135c39-23,153-91,255-150s217-127,255-150   c39-23,138-82,220-130c629-369,1067-639,1133-698c12-11,22-25,22-31c0-12-119-87-340-216c-69-40-161-94-205-120s-154-88-245-140   c-91-51-210-119-265-150c-133-76-290-155-342-170c-41-13-43-12-145,46c-174,98-690,393-943,539c-132,76-330,190-440,253   c-442,254-1101,636-1370,795c-301,178-395,243-395,273c0,7,40,37,88,67c105,65,674,398,892,522c85,48,205,116,265,150   c101,58,185,103,193,105C2328.9,8308.3,2343.9,8301.3,2361.9,8292.3z M793.9,6967.3c88-50,221-126,295-169c147-85,710-410,910-525   c69-40,229-132,355-205c127-73,286-165,355-205c69-39,184-105,255-147c72-41,231-134,355-205s315-182,425-245l200-115l8-939   c8-950,2-2702-10-2826c-3-38-10-68-15-68c-7,0-102,52-318,175c-41,23-208,118-370,210c-295,167-382,217-625,358   c-142,82-703,406-910,525c-136,78-262,151-580,335c-104,60-256,147-336,193c-81,47-151,90-157,97c-15,18-23,3847-8,3847   C628.9,7058.3,705.9,7017.3,793.9,6967.3z M7716.9,5129.3l-3-1912l-24-19c-14-10-63-40-110-67s-214-124-371-215s-409-236-560-323   s-360-208-465-268c-104-60-336-192-515-294c-179-102-381-218-450-258c-69-39-178-102-242-138c-65-37-169-96-230-131   c-259-146-339-188-346-182c-16,16-23,1131-17,2443l7,1383l72,41c81,47,341,197,526,304c69,40,170,98,225,130   c485,281,615,351,625,336c11-18,20-335,20-710c1-305,8-463,24-478c8-8,98,40,268,141l138,81v40c0,22,7,308,15,635   c11,474,16,597,27,603c20,12,158,91,283,161c110,63,460,264,715,411c334,193,374,215,382,207   C7715.9,7045.3,7717.9,6181.3,7716.9,5129.3z"></path>
</g>
</svg>