<svg xmlns="http://www.w3.org/2000/svg" xmlns:xlink="http://www.w3.org/1999/xlink" id="Camada_1" x="0px" y="0px" viewBox="0 0 334 368" style="enable-background:new 0 0 334 368;" xml:space="preserve">
<g transform="translate(0.000000,406.000000) scale(0.100000,-0.100000)">
	<path d="M1565,3976.2c-113-13-244-52-354-105c-542-259-783-899-546-1447c77-179,215-350,370-464c17-12,28-23,25-26   c-3-2-50-27-105-56c-491-260-802-724-855-1277c-5-60-10-115-10-121c0-10,38-13,159-13h158l6,90c52,729,704,1266,1432,1179   c505-60,939-428,1076-912c27-96,49-229,49-299v-58h161h162l-8,92c-18,235-67,417-171,623c-74,148-168,279-289,400   c-127,128-249,219-392,292c-62,32-113,60-113,63s31,29,69,57c78,59,173,164,239,266c256,397,235,908-54,1287   c-55,73-185,196-257,243C2095,3937.2,1819,4006.2,1565,3976.2z M1910,3637.2c205-58,391-210,489-400c59-115,82-198,88-330   c12-237-63-435-226-603c-187-192-468-276-739-221c-94,18-254,95-334,158c-121,96-224,254-270,412c-30,103-32,312-4,414   c81,300,336,535,638,590C1636,3672.2,1824,3661.2,1910,3637.2z"></path>
</g>
</svg>