<svg xmlns="http://www.w3.org/2000/svg" xmlns:xlink="http://www.w3.org/1999/xlink" id="Camada_1" x="0px" y="0px" viewBox="0 0 307 310" style="enable-background:new 0 0 307 310;" xml:space="preserve">
<g transform="translate(0.000000,454.000000) scale(0.100000,-0.100000)">
	<path d="M1300,4447.2c-63-10-131-23-150-28c-108-30-168-53-290-110c-43-20-182-106-211-130c-11-9-29-24-39-32c-9-8-39-33-66-54   c-145-117-320-369-394-566c-11-30-25-64-29-75c-16-35-41-142-56-232c-17-105-20-379-4-455c25-122,50-224,59-243c5-11,21-51,35-90   c69-181,218-394,376-537c85-77,173-148,184-148c3,0,29-15,58-33c53-34,71-43,193-97c248-112,635-141,904-68c41,11,89,23,105,27   c42,11,204,79,240,101c17,11,42,25,56,32c66,35,191,133,283,223c106,103,160,171,258,319c4,6,27,54,52,106c81,174,112,291,137,519   c14,131,3,281-33,438c-19,82-23,91-37,81c-9-7-68-58-131-112l-115-100l3-165c3-140,0-181-18-261c-25-111-72-252-97-289   c-10-14-23-38-30-52c-26-60-108-171-179-242c-245-247-555-370-889-352c-211,11-385,62-555,164c-159,95-320,258-400,406   c-17,31-38,67-46,80c-19,29-77,199-95,281c-18,77-18,386,0,469c20,92,67,222,108,294c20,36,43,79,52,96c37,72,145,194,261,293   c39,33,165,112,179,112c5,0,11,3,13,8c4,9,99,50,161,68c123,37,157,44,264,55c276,28,574-50,778-205l60-46l112,112l111,111l-91,66   c-133,95-265,165-382,200c-22,7-49,16-60,21c-38,15-170,42-255,51C1563,4471.2,1428,4467.2,1300,4447.2z"></path>
	<path d="M2723,3989.2c-62-60-113-112-113-116c0-3-21-26-46-49c-26-23-273-268-550-544c-277-277-509-503-516-503s-154,141-325,312   l-313,313l-95-95c-52-52-95-99-95-104s186-195,414-423l414-414l766,767c421,422,766,771,766,777c0,11-176,187-187,187   C2838,4097.2,2784,4048.2,2723,3989.2z"></path>
</g>
</svg>