<svg xmlns="http://www.w3.org/2000/svg" xmlns:xlink="http://www.w3.org/1999/xlink" id="Camada_1" x="0px" y="0px" viewBox="0 0 173.3 173.3" style="enable-background:new 0 0 173.3 173.3;" xml:space="preserve">
<g transform="translate(0.000000,227.000000) scale(0.100000,-0.100000)">
	<path d="M730,2232.9c-349-62-626-346-681-699c-14-90-6-251,17-335c80-298,301-517,604-601c101-28,320-26,424,4   c145,42,268,114,371,217s175,226,217,371c30,104,32,323,4,424c-84,303-302,523-601,605C1013,2237.9,807,2246.9,730,2232.9z    M959,2123.9c455-58,748-525,595-951c-39-107-89-186-173-270c-121-120-262-190-424-208c-529-60-940,460-757,960   c89,245,324,435,578,468C873,2134.9,867,2134.9,959,2123.9z"></path>
	<path d="M808,1902.9l-3-72l-45-13c-58-17-127-76-151-128c-24-53-24-139,0-191c28-61,71-95,204-160c96-47,125-67,140-93   c16-28,17-37,7-62c-32-78-216-81-331-6l-39,26v-90c0-81,2-90,21-101c19-10,153-38,187-39c8,0,12-20,12-65v-65h65h64l3,71l3,70   l52,18c106,36,154,97,161,209c4,52,0,71-22,115c-31,65-73,96-216,165c-88,42-109,56-125,86c-19,35-19,36,1,63c34,45,61,54,149,50   c53-2,96-11,128-25l47-21v84v84l-37,10c-21,6-48,11-59,11c-12,0-36,3-53,6c-31,6-31,7-31,70v64h-65h-64L808,1902.9z"></path>
</g>
</svg>