<svg xmlns="http://www.w3.org/2000/svg" xmlns:xlink="http://www.w3.org/1999/xlink" id="Camada_1" x="0px" y="0px" viewBox="0 0 562 528" style="enable-background:new 0 0 562 528;" xml:space="preserve">
<g transform="translate(0.000000,623.000000) scale(0.100000,-0.100000)">
	<path d="M199,6163.2c-59-21-96-53-123-108c-40-80-31-159,27-225c63-71,70-73,457-73c367,0,374-1,399-48c5-10,48-180,96-377   c47-198,110-461,140-585c48-196,269-1119,341-1420c14-58,43-179,65-270s56-230,75-310c42-172,69-230,147-316c71-77,179-136,284-153   c49-8,436-11,1389-9l1321,3l49,30c146,91,130,304-28,369c-33,14-187,16-1357,16H2161l-25,23c-17,15-31,45-44,99c-11,42-17,79-14,82   c3,4,616,6,1362,6c1482,0,1411-3,1524,58c69,36,177,145,210,211c25,48,72,228,191,731c19,80,56,237,84,350c92,378,101,422,101,483   c0,178-113,362-271,447c-117,62-43,60-1754,60H1965l-51-24c-128-60-163-218-71-323c17-20,50-44,72-54c38-18,113-19,1598-19h1559   l29-29c16-16,29-40,29-53s-34-166-76-339c-41-173-98-406-125-519s-65-272-85-355c-40-165-45-180-75-195c-31-17-2752-14-2779,2   c-27,17-32,33-89,273c-28,116-78,325-112,465s-72,298-84,350c-36,152-221,923-286,1189c-69,285-91,333-195,431   c-74,69-143,104-244,126C890,6182.2,252,6182.2,199,6163.2z"></path>
	<path d="M2306,2122.2c-357-102-519-502-331-820c39-66,124-151,192-191c212-124,493-86,667,90c108,110,159,235,158,391   c-1,234-145,436-367,516C2548,2135.2,2378,2143.2,2306,2122.2z M2495,1703.2c98-41,99-183,1-226c-62-28-122-10-156,46   c-40,64-14,150,54,180C2434,1720.2,2453,1720.2,2495,1703.2z"></path>
	<path d="M4289,2126.2c-207-49-379-219-420-418c-18-90-7-244,24-319c56-136,154-239,288-301c211-99,476-45,632,129   c280,311,129,801-278,905C4472,2138.2,4348,2140.2,4289,2126.2z M4455,1703.2c98-41,97-191-1-232c-62-26-130,0-158,61   c-32,67-9,136,55,168C4393,1720.2,4411,1721.2,4455,1703.2z"></path>
</g>
</svg>