<svg xmlns="http://www.w3.org/2000/svg" xmlns:xlink="http://www.w3.org/1999/xlink" id="Camada_1" x="0px" y="0px" viewBox="0 0 591 586.5" style="enable-background:new 0 0 591 586.5;" xml:space="preserve">
<g transform="translate(0.000000,655.000000) scale(0.100000,-0.100000)">
	<path d="M2907.9,6460.3c-192-69-258-308-128-461c64-74,107-92,247-102c335-24,484-50,701-123c711-237,1262-820,1447-1530   c40-156,59-286,68-467c7-138,11-162,36-216c31-71,63-104,125-132c134-59,294-23,366,82c48,71,57,111,55,257c-2,281-61,590-167,879   c-87,239-275,571-432,765c-267,331-600,596-977,777c-372,179-733,268-1141,284C2978.9,6478.3,2951.9,6476.3,2907.9,6460.3z"></path>
	<path d="M1213.9,6107.3c-260-71-631-194-720-239c-174-88-333-362-385-664c-18-103-20-334-4-439c48-317,268-882,504-1287   c496-855,1362-1719,2215-2209c357-206,875-415,1188-481c137-29,358-36,487-17c339,53,615,212,709,409c38,81,159,443,212,637   c42,153,43,203,7,279c-110,225-623,505-1098,599c-125,24-351,24-420-1c-99-35-120-57-190-201c-92-190-164-248-284-230   c-157,23-349,182-997,830c-669,669-829,862-842,1019c-10,124,57,203,238,280c106,44,135,68,169,138c68,138,59,375-25,665   c-117,403-353,794-542,896C1366.9,6128.3,1306.9,6133.3,1213.9,6107.3z"></path>
	<path d="M2725.9,5357.3c-34-16-73-44-87-61c-101-119-98-291,6-398c62-64,113-82,257-91c154-10,268-31,380-71   c320-113,578-334,730-627c87-167,126-314,141-531c12-176,51-247,166-301c152-72,321-10,390,142c28,62,28,64,22,208   c-24,571-332,1115-812,1436c-312,209-680,325-1029,325C2794.9,5388.3,2781.9,5386.3,2725.9,5357.3z"></path>
</g>
</svg>