<svg xmlns="http://www.w3.org/2000/svg" xmlns:xlink="http://www.w3.org/1999/xlink" id="Camada_1" x="0px" y="0px" viewBox="0 0 987.1 957.1" style="enable-background:new 0 0 987.1 957.1;" xml:space="preserve">
<g transform="translate(0.000000,1059.000000) scale(0.100000,-0.100000)">
	<path d="M3253.3,10383.9c-112-29-157-55-249-143c-63-60-91-97-118-152c-35-71-37-77-45-233l-8-161l-89-157c-49-87-162-288-252-448   c-89-159-193-344-230-410c-64-113-268-478-422-755l-70-126l-92-23c-140-36-263-86-338-137c-140-96-264-262-314-420l-25-81l-92-7   c-232-17-387-97-453-232c-23-48-28-72-35-202c-11-205-11-594,1-734c16-198,63-277,204-344c71-34,183-63,241-64c45,0,75-11,75-26   c0-7,36-139,79-291c44-153,121-424,171-603s120-426,155-550s100-358,145-520s99-359,121-437c39-142,103-312,152-410   c74-146,226-334,352-436c123-100,309-190,439-214c45-8,189-18,321-23c265-9,2920-8,2929,1c4,3-11,44-33,90c-21,46-60,143-86,214   c-26,72-51,133-54,138c-4,4-174,12-377,18s-370,12-371,13c-1,0-5,150-9,333l-7,331l332,4c303,3,334,5,345,20c7,10,19,60,25,110   c15,111,49,316,57,341c5,16-17,17-375,17h-381v338v337l527-3l528-2l70,92c92,122,355,385,473,473c51,38,95,78,97,89   c3,12,23,131,45,266s43,253,46,262c4,14,23,17,132,21c202,6,1040,2,1047-5c4-4-3-41-14-82c-26-93-26-85,2-95c36-14,374-44,413-37   c39,8,51,28,79,128c8,32,24,66,35,76s56,29,100,41c132,39,246,118,293,206c22,39,22,48,25,569l3,528l-42,54   c-93,121-196,171-410,199c-56,7-107,19-114,26c-7,8-28,51-48,97c-56,132-95,190-197,292c-74,75-113,105-175,137   c-83,42-171,73-265,93c-30,6-62,14-71,16c-10,3-63,87-119,187c-57,100-131,232-165,292c-35,61-136,241-225,400   c-89,160-195,349-235,420c-40,72-134,239-209,373l-136,243v123c0,184-41,294-151,406c-208,211-572,210-784-4   c-111-111-165-238-165-385c1-154,55-268,203-428c133-142,194-243,707-1158c169-301,232-414,393-700c53-93,99-178,102-187   c4-10-9-62-31-123l-38-105l-396-2c-217-2-1115-4-1995-6l-1600-2l-42,111l-42,112l76,136c139,248,254,454,331,591   c147,265,496,877,577,1015c118,198,165,262,236,320c152,122,225,325,185,515c-23,110-84,226-157,299c-72,72-189,134-294,156   C3386.3,10408.9,3343.3,10407.9,3253.3,10383.9z M1958.3,7274.9c81-42,141-110,174-197c32-85,26-213-14-301c-36-79-113-152-194-183   c-80-32-204-32-284,0c-110,43-198,148-234,280c-17,60-17,67-1,129c26,100,107,216,184,263c61,38,112,49,210,46   C1881.3,7308.9,1898.3,7304.9,1958.3,7274.9z M7579.3,7280.9c76-35,144-104,181-184c23-49,27-70,27-152c0-84-3-102-28-152   c-121-247-426-302-614-111c-62,63-93,138-100,239c-12,164,83,311,242,374C7364.3,7325.9,7496.3,7318.9,7579.3,7280.9z    M2608.3,5532.9c13-15,117-615,112-650c-2-14-13-25-28-29c-14-4-260-7-547-8l-522-1l-15,53c-34,120-165,604-168,622   c-3,19,4,20,112,26c63,4,324,5,579,3C2491.3,5545.9,2599.3,5542.9,2608.3,5532.9z M6141.3,5538.9c40-8,43,28-31-396l-52-298h-594   h-593l3,333c2,261,6,337,16,350c10,12,36,17,100,20C5133.3,5553.9,6104.3,5546.9,6141.3,5538.9z M4392.3,5492.9c0-29,3-187,7-350   l6-298h-595h-595l-42,248c-52,308-70,435-64,445c2,4,292,7,644,7h639V5492.9z M2871.3,4029.9c29-170,54-320,58-332l5-23h-490   c-459,0-491,1-496,18c-3,9-30,105-60,212s-69,246-87,307c-18,62-29,116-25,120c8,9,1027,21,1037,13   C2817.3,4341.9,2843.3,4200.9,2871.3,4029.9z M4402.3,4009.9v-335h-497h-498l-52,319c-29,175-56,326-59,335c-6,15,42,16,550,16h556   V4009.9z M3012.3,3180.9c0-2,20-127,45-278c24-150,46-297,47-327c3-52,2-54-27-63c-41-13-316,0-394,18c-202,46-407,236-526,487   c-25,52-45,101-45,109c0,21,24,39,63,48C2208.3,3182.9,3012.3,3187.9,3012.3,3180.9z M4402.3,2843.9v-340l-382,3   c-279,2-389,6-404,15c-25,14-27,24-80,386c-20,136-34,251-30,254c16,16,117,21,494,22l402,1V2843.9z"></path>
	<path d="M7602.3,4883.9c-262-30-634-176-835-326c-108-82-260-226-354-337c-179-211-309-483-373-776c-20-93-22-133-22-350   c0-216,2-257,22-347c56-258,159-493,311-708c77-110,305-335,421-418c177-125,440-243,650-291c173-40,509-45,705-11   c256,45,503,147,709,292c107,76,367,336,443,443c164,231,258,453,309,735c25,135,25,439,0,575c-42,232-89,378-177,550   c-84,164-175,286-324,436c-217,217-407,340-671,434C8151.3,4878.9,7862.3,4913.9,7602.3,4883.9z M7897.3,4078.9   c65-23,140-95,154-151c17-62,30-222,31-358c0-66,3-143,6-172l7-52l266-3c240-3,270-5,306-23c162-80,193-297,60-414   c-72-63-84-65-372-69l-261-4l-6-71c-3-40-8-156-11-259c-7-223-17-266-77-325c-53-52-113-75-198-76c-78-1-108,13-185,86l-55,52   l-7,296l-6,296l-296,6l-296,7l-58,62c-79,86-94,129-79,222c15,86,53,152,103,178c59,30,139,38,392,38h237v244c0,134,5,267,10,297   C7592.3,4040.9,7746.3,4129.9,7897.3,4078.9z"></path>
</g>
</svg>