<svg xmlns="http://www.w3.org/2000/svg" xmlns:xlink="http://www.w3.org/1999/xlink" id="Camada_1" x="0px" y="0px" viewBox="0 0 385 308" style="enable-background:new 0 0 385 308;" xml:space="preserve">
<g transform="translate(0.000000,512.000000) scale(0.100000,-0.100000)">
	<path d="M2234,4956c-172-54-261-251-194-429c19-52,48-86,232-278c116-121,233-244,260-274l50-55l-1124-2l-1123-3l-51-27   c-60-32-118-93-148-157c-30-65-30-197,0-262c30-64,88-125,148-157l51-27l1123-5l1124-5l-255-267c-170-178-262-282-278-315   c-20-40-24-63-24-143c0-79,4-103,23-142c90-182,311-232,462-105c69,59,1039,1081,1072,1130c56,84,62,213,14,310   c-19,39-158,190-546,597c-286,300-537,557-557,573C2423,4965,2319,4982,2234,4956z"></path>
</g>
</svg>